<?xml version="1.0" standalone="no"?>
<!DOCTYPE svg PUBLIC "-//W3C//DTD SVG 20010904//EN"
 "http://www.w3.org/TR/2001/REC-SVG-20010904/DTD/svg10.dtd">
<svg version="1.0" xmlns="http://www.w3.org/2000/svg"
 width="100.000000pt" height="100.000000pt" viewBox="0 0 100.000000 100.000000"
 preserveAspectRatio="xMidYMid meet">

<g transform="translate(0.000000,100.000000) scale(0.100000,-0.100000)"
fill="#000000" stroke="none">
<path d="M537 913 c-10 -10 -48 -23 -86 -29 -139 -23 -249 -100 -312 -216 -33
-60 -34 -67 -34 -168 0 -95 3 -110 28 -163 38 -77 111 -148 193 -188 58 -29
80 -34 159 -37 67 -3 108 0 151 13 113 32 213 117 262 223 22 48 27 71 27 147
0 80 -3 97 -31 155 -55 117 -166 203 -299 230 -51 11 -57 14 -42 25 9 7 17 15
17 19 0 11 -16 6 -33 -11z m-49 -67 c-11 -26 -5 -56 12 -56 5 0 10 10 10 23 0
13 6 32 14 42 12 17 18 17 72 7 84 -17 157 -57 215 -119 75 -79 94 -128 94
-243 0 -88 -3 -101 -33 -162 -117 -239 -453 -288 -649 -96 -205 202 -109 534
177 614 25 7 57 13 72 13 26 1 27 -1 16 -23z"/>
<path d="M424 566 c-9 -24 4 -48 23 -44 12 2 18 12 18 28 0 29 -32 41 -41 16z"/>
<path d="M564 566 c-9 -23 1 -42 24 -48 16 -5 19 0 18 26 -1 34 -31 50 -42 22z"/>
<path d="M628 523 c6 -2 18 -2 25 0 6 3 1 5 -13 5 -14 0 -19 -2 -12 -5z"/>
<path d="M480 500 c0 -5 11 -10 25 -10 14 0 25 5 25 10 0 6 -11 10 -25 10 -14
0 -25 -4 -25 -10z"/>
</g>
</svg>
